<svg width="40" height="40" viewBox="0 0 40 40" fill="none" xmlns="http://www.w3.org/2000/svg">
<path d="M20.0119 39.5021C12.5959 39.5029 5.75742 35.2534 2.48217 28.5649C-0.832084 21.7946 0.171417 13.3511 4.98042 7.5544C9.78417 1.76365 17.5939 -0.763102 24.8749 1.11715C25.6767 1.32415 26.1589 2.1424 25.9527 2.9449C25.7457 3.7474 24.9267 4.2289 24.1249 4.02265C17.9659 2.4319 11.3554 4.5694 7.28967 9.47065C3.22167 14.3749 2.37267 21.5186 5.17692 27.2471C7.97067 32.9531 14.1334 36.6702 20.4589 36.4977C26.7837 36.3251 32.5234 32.4784 35.0817 26.6981C36.5839 23.3036 36.9019 19.4599 35.9757 15.8741C35.7687 15.0724 36.2509 14.2541 37.0534 14.0464C37.8537 13.8386 38.6734 14.3216 38.8812 15.1241C39.9747 19.3609 39.6004 23.9029 37.8259 27.9124C34.8019 34.7449 28.0167 39.2921 20.5414 39.4961C20.3644 39.4999 20.1874 39.5021 20.0119 39.5021Z" fill="#961842"/>
<path d="M19.9998 24.68C19.6158 24.68 19.2318 24.5337 18.9393 24.2405C18.3536 23.6547 18.3536 22.7052 18.9393 22.1195L36.9393 4.11949C37.5243 3.53374 38.4753 3.53374 39.0603 4.11949C39.6461 4.70524 39.6461 5.65474 39.0603 6.24049L21.0603 24.2405C20.7678 24.533 20.3838 24.68 19.9998 24.68Z" fill="#961842"/>
<path d="M20 24.68C19.616 24.68 19.232 24.5337 18.9395 24.2405L12.5758 17.8767C11.99 17.291 11.99 16.3415 12.5758 15.7557C13.1608 15.17 14.1118 15.17 14.6968 15.7557L21.0605 22.1195C21.6463 22.7052 21.6463 23.6547 21.0605 24.2405C20.768 24.533 20.384 24.68 20 24.68Z" fill="#961842"/>
</svg>
