<svg width="106" height="64" viewBox="0 0 106 64" fill="none" xmlns="http://www.w3.org/2000/svg">
<path d="M35.0447 52.1699C34.6588 52.1699 34.2887 52.3232 34.0158 52.5961C33.7429 52.869 33.5896 53.2391 33.5896 53.625V55.291C33.5896 55.6769 33.7429 56.047 34.0158 56.3199C34.2887 56.5927 34.6588 56.746 35.0447 56.746C35.4306 56.746 35.8007 56.5927 36.0735 56.3199C36.3464 56.047 36.4997 55.6769 36.4997 55.291V53.625C36.4997 53.2391 36.3464 52.869 36.0735 52.5961C35.8007 52.3232 35.4306 52.1699 35.0447 52.1699Z" fill="#961842"/>
<path d="M40.8648 50.7148C40.4789 50.7148 40.1088 50.8681 39.836 51.141C39.5631 51.4139 39.4098 51.784 39.4098 52.1699V56.746C39.4098 57.1319 39.5631 57.502 39.836 57.7749C40.1088 58.0477 40.4789 58.201 40.8648 58.201C41.2507 58.201 41.6208 58.0477 41.8937 57.7749C42.1666 57.502 42.3199 57.1319 42.3199 56.746V52.1699C42.3199 51.784 42.1666 51.4139 41.8937 51.141C41.6208 50.8681 41.2507 50.7148 40.8648 50.7148Z" fill="#961842"/>
<path d="M22.946 20.2834V18.0645H26.7145V26.8311C26.7029 27.0155 26.7277 27.2004 26.7876 27.3751C26.8476 27.5499 26.9414 27.7112 27.0638 27.8496C27.3453 28.0852 27.7006 28.2143 28.0677 28.2143C28.4348 28.2143 28.7902 28.0852 29.0717 27.8496C29.1941 27.7112 29.2879 27.5499 29.3478 27.3751C29.4078 27.2004 29.4326 27.0155 29.4209 26.8311V17.2569C29.4332 17.068 29.4073 16.8785 29.3448 16.6998C29.2823 16.521 29.1845 16.3567 29.0572 16.2166C28.913 16.0886 28.7449 15.9905 28.5626 15.9281C28.3802 15.8656 28.1873 15.8401 27.995 15.8528H21.8838C21.6927 15.841 21.5011 15.8671 21.3201 15.9295C21.1391 15.9919 20.9722 16.0895 20.8289 16.2166C20.7016 16.3567 20.6038 16.521 20.5413 16.6998C20.4788 16.8785 20.4529 17.068 20.4651 17.2569V19.5922C20.4781 20.3573 20.4465 21.1225 20.3706 21.8839C20.3003 22.4862 20.1736 23.0805 19.9923 23.6591C19.8455 24.1297 19.6298 24.5759 19.352 24.9832C19.1019 25.3543 18.7893 25.6792 18.4281 25.9435C18.1533 26.1396 17.9553 26.425 17.8679 26.7511C17.8333 26.9065 17.8342 27.0677 17.8708 27.2227C17.9073 27.3776 17.9785 27.5223 18.0789 27.6459C18.1738 27.7846 18.2954 27.9029 18.4365 27.9941C18.5777 28.0853 18.7356 28.1475 18.901 28.177C19.0642 28.1998 19.2304 28.189 19.3893 28.1453C19.5482 28.1015 19.6964 28.0256 19.8249 27.9224C20.3257 27.5759 20.772 27.1566 21.149 26.6783C21.5496 26.1669 21.88 25.6041 22.1312 25.005C22.4102 24.3238 22.6128 23.6138 22.735 22.8879C22.8796 22.0274 22.9502 21.156 22.946 20.2834Z" fill="#961842"/>
<path d="M84.3269 16.8779C83.4468 16.1455 82.3194 15.7783 81.1767 15.8521H76.9717C76.601 15.8319 76.2366 15.9543 75.9531 16.194C75.8279 16.3323 75.7318 16.4944 75.6705 16.6706C75.6093 16.8469 75.5842 17.0336 75.5967 17.2198V26.8304C75.585 27.0148 75.6098 27.1996 75.6697 27.3744C75.7297 27.5492 75.8235 27.7104 75.9459 27.8489C76.0793 27.9752 76.2373 28.0726 76.41 28.1352C76.5827 28.1978 76.7665 28.2241 76.9498 28.2126C77.1322 28.2249 77.315 28.1989 77.4867 28.1362C77.6583 28.0736 77.815 27.9757 77.9465 27.8489C78.1837 27.5643 78.3034 27.2001 78.2812 26.8304V23.6584H81.1913C82.3366 23.7342 83.4665 23.361 84.3415 22.618C84.7181 22.2441 85.0113 21.7948 85.2019 21.2995C85.3925 20.8042 85.4761 20.2742 85.4473 19.7443C85.4746 19.2144 85.3888 18.6847 85.1956 18.1905C85.0025 17.6963 84.7063 17.2488 84.3269 16.8779ZM82.3117 21.0975C81.8569 21.4404 81.294 21.6083 80.7257 21.5704H78.2812V17.9328H80.7548C81.32 17.8918 81.8817 18.0515 82.3408 18.3838C82.5287 18.5514 82.6756 18.7599 82.7702 18.9933C82.8649 19.2266 82.9046 19.4786 82.8864 19.7298C82.9006 19.9864 82.8562 20.2429 82.7566 20.4798C82.657 20.7168 82.5049 20.928 82.3117 21.0975Z" fill="#961842"/>
<path d="M67.3757 35.4956C69.7219 32.7781 71.2784 29.4696 71.8763 25.9296C72.4741 22.3895 72.0903 18.7534 70.7666 15.4162C69.4428 12.0789 67.2298 9.16833 64.368 7.00058C61.5062 4.83282 58.105 3.49084 54.534 3.12045C50.963 2.75006 47.3588 3.36542 44.113 4.89968C40.8672 6.43393 38.1039 8.8284 36.1235 11.8229C34.143 14.8174 33.0211 18.2974 32.8796 21.8848C32.7382 25.4721 33.5826 29.0297 35.3211 32.1708L33.2259 34.2661C32.45 35.0414 31.9451 36.0466 31.7865 37.132C31.6279 38.2174 31.824 39.325 32.3456 40.2899L23.0406 49.5949C22.7696 49.8675 22.6175 50.2363 22.6175 50.6207C22.6175 51.0051 22.7696 51.3739 23.0406 51.6465C23.1759 51.7827 23.3369 51.8907 23.5142 51.9644C23.6915 52.0381 23.8817 52.0759 24.0737 52.0758C24.4579 52.0761 24.8267 51.9244 25.0995 51.6538L34.4044 42.3488C35.1494 42.7488 35.9816 42.9587 36.8271 42.9599C37.4995 42.9696 38.1671 42.8459 38.7914 42.5962C39.4158 42.3465 39.9845 41.9756 40.4647 41.5049L42.4217 39.5406C45.9628 41.6759 50.0886 42.6365 54.2087 42.285C58.3288 41.9335 62.2322 40.2879 65.3604 37.5835L79.7072 51.9375C79.98 52.2081 80.3487 52.3598 80.733 52.3595C81.0205 52.3597 81.3016 52.2748 81.5409 52.1153C81.7801 51.9559 81.9668 51.7292 82.0773 51.4638C82.1879 51.1984 82.2173 50.9062 82.1619 50.6241C82.1065 50.3419 81.9687 50.0825 81.766 49.8786L67.3757 35.4956ZM38.3694 39.4096C37.9531 39.8047 37.401 40.0249 36.8271 40.0249C36.2532 40.0249 35.7011 39.8047 35.2847 39.4096C34.876 39.0004 34.6465 38.4457 34.6465 37.8673C34.6465 37.2889 34.876 36.7342 35.2847 36.3249L36.9508 34.6516C37.8493 35.8229 38.8767 36.8893 40.0136 37.8309L38.3694 39.4096ZM65.2877 33.4294L59.5839 27.7329C60.8202 25.9265 61.3328 23.7216 61.0201 21.5551C60.7074 19.3887 59.5922 17.4187 57.8956 16.0356C56.199 14.6525 54.0448 13.9572 51.8597 14.0875C49.6747 14.2178 47.6183 15.1642 46.0981 16.7391C44.5778 18.314 43.7047 20.4025 43.6517 22.5908C43.5986 24.7791 44.3696 26.9074 45.8118 28.5541C47.2539 30.2008 49.2621 31.2457 51.4382 31.4816C53.6144 31.7176 55.7998 31.1275 57.5614 29.8282L63.2943 35.4883C59.9943 38.2668 55.7487 39.6635 51.4437 39.3869C47.1386 39.1102 43.1067 37.1815 40.1896 34.0034C37.2724 30.8253 35.6954 26.6433 35.7877 22.3304C35.88 18.0174 37.6344 13.9067 40.6848 10.8563C43.7353 7.8059 47.8459 6.05146 52.1589 5.95918C56.4719 5.8669 60.6538 7.44391 63.8319 10.3611C67.01 13.2782 68.9387 17.3101 69.2154 21.6152C69.492 25.9202 68.0953 30.1658 65.3168 33.4658L65.2877 33.4294ZM58.3253 22.6766C58.3253 23.8278 57.984 24.953 57.3444 25.9102C56.7049 26.8673 55.7959 27.6133 54.7324 28.0538C53.6689 28.4943 52.4987 28.6096 51.3697 28.385C50.2407 28.1604 49.2036 27.6061 48.3897 26.7921C47.5757 25.9782 47.0214 24.9411 46.7968 23.8121C46.5723 22.6831 46.6875 21.5129 47.128 20.4494C47.5685 19.3859 48.3145 18.4769 49.2717 17.8374C50.2288 17.1978 51.354 16.8565 52.5052 16.8565C54.0488 16.8565 55.5291 17.4697 56.6206 18.5612C57.7121 19.6527 58.3253 21.133 58.3253 22.6766Z" fill="#961842"/>
<path d="M52.5052 24.8593C53.7106 24.8593 54.6877 23.8821 54.6877 22.6767C54.6877 21.4713 53.7106 20.4941 52.5052 20.4941C51.2998 20.4941 50.3226 21.4713 50.3226 22.6767C50.3226 23.8821 51.2998 24.8593 52.5052 24.8593Z" fill="#961842"/>
<path d="M46.685 47.8047C46.2991 47.8047 45.929 47.958 45.6561 48.2309C45.3833 48.5037 45.2299 48.8738 45.2299 49.2597V59.656C45.2299 60.0419 45.3833 60.412 45.6561 60.6849C45.929 60.9577 46.2991 61.111 46.685 61.111C47.0709 61.111 47.441 60.9577 47.7139 60.6849C47.9867 60.412 48.14 60.0419 48.14 59.656V49.2597C48.14 48.8738 47.9867 48.5037 47.7139 48.2309C47.441 47.958 47.0709 47.8047 46.685 47.8047Z" fill="#961842"/>
<path d="M52.5052 44.8945C52.1193 44.8945 51.7492 45.0478 51.4763 45.3207C51.2034 45.5936 51.0501 45.9637 51.0501 46.3496V62.566C51.0501 62.9519 51.2034 63.322 51.4763 63.5949C51.7492 63.8678 52.1193 64.0211 52.5052 64.0211C52.8911 64.0211 53.2611 63.8678 53.534 63.5949C53.8069 63.322 53.9602 62.9519 53.9602 62.566V46.3496C53.9602 45.9637 53.8069 45.5936 53.534 45.3207C53.2611 45.0478 52.8911 44.8945 52.5052 44.8945Z" fill="#961842"/>
<path d="M58.3253 47.8047C57.9394 47.8047 57.5693 47.958 57.2964 48.2309C57.0236 48.5037 56.8703 48.8738 56.8703 49.2597V59.656C56.8703 60.0419 57.0236 60.412 57.2964 60.6849C57.5693 60.9577 57.9394 61.111 58.3253 61.111C58.7112 61.111 59.0813 60.9577 59.3542 60.6849C59.6271 60.412 59.7804 60.0419 59.7804 59.656V49.2597C59.7804 48.8738 59.6271 48.5037 59.3542 48.2309C59.0813 47.958 58.7112 47.8047 58.3253 47.8047Z" fill="#961842"/>
<path d="M64.1455 50.7148C63.7596 50.7148 63.3895 50.8681 63.1166 51.141C62.8438 51.4139 62.6905 51.784 62.6905 52.1699V56.746C62.6905 57.1319 62.8438 57.502 63.1166 57.7749C63.3895 58.0477 63.7596 58.201 64.1455 58.201C64.5314 58.201 64.9015 58.0477 65.1744 57.7749C65.4472 57.502 65.6005 57.1319 65.6005 56.746V52.1699C65.6005 51.784 65.4472 51.4139 65.1744 51.141C64.9015 50.8681 64.5314 50.7148 64.1455 50.7148Z" fill="#961842"/>
<path d="M69.9657 52.1699C69.5798 52.1699 69.2097 52.3232 68.9368 52.5961C68.6639 52.869 68.5106 53.2391 68.5106 53.625V55.291C68.5106 55.6769 68.6639 56.047 68.9368 56.3199C69.2097 56.5927 69.5798 56.746 69.9657 56.746C70.3516 56.746 70.7217 56.5927 70.9945 56.3199C71.2674 56.047 71.4207 55.6769 71.4207 55.291V53.625C71.4207 53.2391 71.2674 52.869 70.9945 52.5961C70.7217 52.3232 70.3516 52.1699 69.9657 52.1699Z" fill="#961842"/>
<path d="M104.938 22.1308C104.887 21.9966 104.809 21.8744 104.709 21.7717C104.609 21.669 104.488 21.5882 104.356 21.5342C103.219 21.0381 101.995 20.7729 100.754 20.7542C99.5141 20.7354 98.2826 20.9635 97.1313 21.4251C96.2217 21.7923 95.373 22.2951 94.6141 22.9165C94.653 21.7182 94.5946 20.5187 94.4395 19.3299C96.6603 18.6536 98.5549 17.1841 99.7623 15.2012C100.97 13.2183 101.406 10.8606 100.987 8.5771C100.964 8.43125 100.911 8.29164 100.832 8.16663C100.753 8.04163 100.65 7.93379 100.529 7.84958C100.411 7.76816 100.279 7.71082 100.139 7.68085C99.999 7.65088 99.8546 7.64889 99.714 7.67497C98.4861 7.89714 97.315 8.36231 96.2693 9.04318C95.2237 9.72406 94.3245 10.6069 93.6246 11.64C93.3205 12.1022 93.0552 12.5889 92.8316 13.095C92.5463 12.3516 92.2233 11.6231 91.864 10.9124C92.2976 8.5068 91.783 6.02671 90.428 3.99221C89.073 1.95771 86.983 0.526842 84.5961 -0.0003688C84.4561 -0.0314802 84.3114 -0.0347033 84.1702 -0.00985385C84.029 0.0149956 83.894 0.0674305 83.7731 0.144454C83.6522 0.221477 83.5476 0.321579 83.4653 0.439038C83.3831 0.556497 83.3248 0.689011 83.2938 0.829005C82.783 3.18301 83.1896 5.64322 84.4307 7.70767C85.6718 9.77212 87.6539 11.2852 89.9725 11.9382C90.8237 13.6697 93.9738 20.8504 91.5148 27.8564C89.8488 32.5998 85.9493 36.3393 79.9181 39.002C79.6199 39.1111 79.3289 39.2421 79.0378 39.3803H78.9869H78.9142C78.8035 39.4391 78.7048 39.5181 78.6232 39.6131C78.5403 39.7083 78.4783 39.8199 78.4413 39.9405C78.4413 39.9405 78.4413 39.9405 78.4413 39.9987V40.1006C78.4377 40.1344 78.4377 40.1686 78.4413 40.2024C78.4377 40.2387 78.4377 40.2753 78.4413 40.3116C78.4413 40.3116 78.4413 40.3843 78.4413 40.4134C78.4377 40.4497 78.4377 40.4862 78.4413 40.5225C78.4382 40.5588 78.4382 40.5954 78.4413 40.6317C78.4413 40.6317 78.4413 40.668 78.4413 40.6899C78.4413 40.7117 78.4413 40.6899 78.4413 40.6899V40.7481C78.9854 41.869 79.7456 42.8713 80.6782 43.6976C81.6108 44.5238 82.6976 45.1576 83.8759 45.5625C85.0542 45.9675 86.301 46.1356 87.5445 46.0572C88.788 45.9789 90.0038 45.6556 91.122 45.1059C91.3771 44.9751 91.5705 44.7491 91.6603 44.4768C91.7502 44.2046 91.7293 43.9079 91.6021 43.6509C90.9679 42.4092 90.0671 41.3232 88.964 40.4704C87.861 39.6177 86.5831 39.0194 85.2218 38.7183C86.3112 38.0182 87.345 37.235 88.3137 36.3757C89.9462 37.6079 91.9358 38.2745 93.9811 38.2745H94.2867C95.5275 38.2387 96.7488 37.9573 97.8802 37.4465C99.0116 36.9358 100.03 36.2059 100.878 35.2989C101.074 35.0849 101.178 34.803 101.169 34.5132C101.153 34.2357 101.031 33.975 100.827 33.7857C99.7059 32.7348 98.3455 31.9729 96.8636 31.566C95.3817 31.1591 93.823 31.1194 92.3224 31.4504C92.8187 30.5693 93.2374 29.6467 93.5737 28.6931C93.5737 28.5839 93.6392 28.4821 93.6756 28.3802C94.5097 28.6249 95.3744 28.7499 96.2437 28.7513C98.0903 28.7524 99.8969 28.2129 101.441 27.1993C102.984 26.1857 104.197 24.7424 104.93 23.0475C104.997 22.904 105.031 22.748 105.033 22.5899C105.034 22.4319 105.002 22.2754 104.938 22.1308ZM89.8197 9.62473C88.4145 9.06026 87.2204 8.07136 86.404 6.79591C85.5876 5.52045 85.1896 4.02203 85.2654 2.50958C86.6706 3.07405 87.8647 4.06295 88.6811 5.3384C89.4975 6.61385 89.8955 8.11227 89.8197 9.62473ZM89.034 43.5781C87.5939 44.0259 86.0502 44.0152 84.6165 43.5472C83.1828 43.0793 81.9299 42.1774 81.0312 40.9663C82.4714 40.5185 84.015 40.5293 85.4487 40.9972C86.8824 41.4651 88.1353 42.367 89.034 43.5781ZM98.3972 34.5496C97.1926 35.4683 95.7312 35.9881 94.217 36.0363C92.7028 36.0846 91.2113 35.6589 89.9507 34.8188C91.1553 33.9001 92.6166 33.3803 94.1308 33.332C95.645 33.2838 97.1365 33.7094 98.3972 34.5496ZM95.4289 12.8767C96.2871 11.6315 97.517 10.6893 98.9428 10.1849C98.9695 11.6985 98.5233 13.1827 97.6665 14.4306C96.8098 15.6786 95.585 16.6283 94.163 17.1473C94.1196 15.6253 94.5631 14.1292 95.4289 12.8767ZM94.5122 26.2777C95.3331 25.0052 96.5306 24.0206 97.9378 23.4611C99.3449 22.9016 100.892 22.7952 102.362 23.1566C101.541 24.4291 100.344 25.4137 98.9366 25.9732C97.5294 26.5327 95.9827 26.6391 94.5122 26.2777Z" fill="#961842"/>
<path d="M26.6927 40.2686V40.1667C26.6927 40.1667 26.6927 40.1231 26.6927 40.1085C26.6927 40.094 26.6927 40.1085 26.6927 40.1085C26.6557 39.9879 26.5937 39.8764 26.5108 39.7811C26.4292 39.6861 26.3305 39.6071 26.2198 39.5483H26.1471H26.0962C25.8051 39.4101 25.5141 39.2792 25.2159 39.17C19.0756 36.3764 15.1761 32.6369 13.5101 27.908C11.051 20.9093 14.1939 13.6995 15.0451 11.9608C17.3622 11.3078 19.343 9.79576 20.584 7.73294C21.8249 5.67012 22.2325 3.21173 21.7238 0.85879C21.6961 0.716177 21.6402 0.58053 21.5593 0.459804C21.4785 0.339079 21.3744 0.235706 21.2531 0.155746C21.1318 0.0757866 20.9958 0.0208509 20.853 -0.00583938C20.7102 -0.0325296 20.5635 -0.0304372 20.4215 0.000315338C18.0511 0.525979 15.9736 1.94315 14.6193 3.95836C13.265 5.97358 12.7376 8.43246 13.1463 10.8258C12.787 11.5365 12.464 12.2649 12.1787 13.0084C11.9532 12.5325 11.6905 12.0751 11.393 11.6406C10.6943 10.6148 9.79881 9.73794 8.75847 9.06103C7.71813 8.38412 6.55367 7.92063 5.33272 7.69748C5.1921 7.6714 5.0477 7.67339 4.90786 7.70336C4.76801 7.73333 4.63548 7.79067 4.5179 7.87209C4.3965 7.9563 4.29334 8.06414 4.21459 8.18914C4.13584 8.31415 4.08311 8.45375 4.05956 8.59961C3.641 10.8831 4.07694 13.2408 5.28437 15.2237C6.4918 17.2066 8.38637 18.6761 10.6072 19.3524C10.4521 20.5412 10.3937 21.7407 10.4326 22.939C9.67369 22.3176 8.82499 21.8148 7.91542 21.4476C6.76413 20.986 5.53255 20.758 4.29232 20.7767C3.05208 20.7954 1.82795 21.0606 0.691137 21.5568C0.558242 21.6107 0.437937 21.6915 0.337779 21.7942C0.23762 21.8969 0.159771 22.0191 0.109121 22.1533C0.0532959 22.2857 0.0245361 22.428 0.0245361 22.5716C0.0245361 22.7153 0.0532959 22.8576 0.109121 22.99C0.842098 24.6849 2.05523 26.1282 3.59886 27.1418C5.14249 28.1554 6.94907 28.6949 8.79572 28.6937C9.66502 28.6924 10.5297 28.5674 11.3639 28.3227C11.4002 28.4246 11.4293 28.5264 11.4657 28.6355C11.802 29.5892 12.2207 30.5118 12.7171 31.3928C11.2149 31.0553 9.65297 31.0896 8.16704 31.4928C6.68112 31.896 5.31609 32.6558 4.19051 33.7064C3.98689 33.8956 3.86436 34.1563 3.84858 34.4339C3.83954 34.7237 3.94395 35.0056 4.13959 35.2196C4.98712 36.1265 6.00602 36.8565 7.13738 37.3672C8.26875 37.8779 9.49013 38.1593 10.7309 38.1952H11.0365C13.0884 38.2099 15.0889 37.5533 16.733 36.3254C17.7017 37.1848 18.7355 37.968 19.8249 38.668C18.4636 38.9691 17.1857 39.5674 16.0826 40.4202C14.9796 41.2729 14.0788 42.359 13.4446 43.6006C13.3174 43.8576 13.2965 44.1543 13.3864 44.4266C13.4762 44.6989 13.6696 44.9249 13.9247 45.0557C16.157 46.1865 18.7465 46.3865 21.126 45.612C23.5055 44.8375 25.481 43.1515 26.62 40.9234V40.8652C26.62 40.8652 26.62 40.8215 26.62 40.807C26.6353 40.7717 26.6475 40.7352 26.6563 40.6978C26.6599 40.6615 26.6599 40.625 26.6563 40.5887C26.6563 40.5887 26.6563 40.5232 26.6563 40.4868C26.6599 40.4506 26.6599 40.414 26.6563 40.3777C26.6728 40.3429 26.685 40.3063 26.6927 40.2686ZM16.3328 5.34759C17.1452 4.06851 18.3424 3.08016 19.7522 2.52481C19.828 4.03727 19.43 5.53569 18.6136 6.81114C17.7972 8.08659 16.6031 9.07549 15.1979 9.63996C15.1127 8.12057 15.5099 6.61312 16.3328 5.33304V5.34759ZM2.65544 23.1573C4.12598 22.7959 5.67265 22.9023 7.07981 23.4618C8.48698 24.0212 9.68449 25.0059 10.5054 26.2784C9.03485 26.6398 7.48818 26.5334 6.08102 25.9739C4.67386 25.4144 3.47634 24.4298 2.65544 23.1573ZM6.08207 10.1856C7.50819 10.6971 8.73574 11.6471 9.58872 12.8993C10.4527 14.1448 10.8985 15.6326 10.8619 17.148C9.43983 16.629 8.2151 15.6793 7.35833 14.4313C6.50155 13.1833 6.05541 11.6992 6.08207 10.1856ZM10.7964 36.0635C9.28582 36.0309 7.82422 35.5216 6.62043 34.6085C7.88109 33.7683 9.37258 33.3427 10.8868 33.3909C12.401 33.4392 13.8623 33.9589 15.0669 34.8777C13.8007 35.7039 12.3068 36.1111 10.7964 36.0417V36.0635ZM20.4215 43.557C18.9794 44.0261 17.4257 44.0261 15.9836 43.557C16.8866 42.3454 18.1444 41.445 19.5824 40.9809C21.0204 40.5168 22.5673 40.5119 24.0082 40.967C23.1139 42.1852 21.8592 43.0913 20.4215 43.557Z" fill="#961842"/>
</svg>
