<svg width="14" height="14" viewBox="0 0 14 14" fill="none" xmlns="http://www.w3.org/2000/svg">
<path d="M5.33526 1.83815L4.6389 2.11669L5.33526 1.83815ZM6.0381 3.59525L6.73446 3.31671L6.0381 3.59525ZM5.82443 4.94402L6.40059 5.42416L5.82443 4.94402ZM5.44617 5.39793L6.02233 5.87807L5.44617 5.39793ZM5.52765 7.19432L4.99732 7.72465L5.52765 7.19432ZM6.80568 8.47235L7.33601 7.94202L6.80568 8.47235ZM8.60207 8.55383L8.12193 7.97767L8.60207 8.55383ZM9.05598 8.17557L9.53612 8.75174L9.53612 8.75174L9.05598 8.17557ZM10.4047 7.9619L10.1262 8.65826L10.4047 7.9619ZM12.1619 8.66474L12.4404 7.96838L12.1619 8.66474ZM2.26316 1.75H4.09729V0.25H2.26316V1.75ZM4.6389 2.11669L5.34174 3.8738L6.73446 3.31671L6.03162 1.5596L4.6389 2.11669ZM5.24826 4.46388L4.87 4.91779L6.02233 5.87807L6.40059 5.42416L5.24826 4.46388ZM4.99732 7.72465L6.27535 9.00268L7.33601 7.94202L6.05798 6.66399L4.99732 7.72465ZM9.08221 9.13L9.53612 8.75174L8.57584 7.59941L8.12193 7.97767L9.08221 9.13ZM10.1262 8.65826L11.8833 9.3611L12.4404 7.96838L10.6833 7.26554L10.1262 8.65826ZM12.25 9.90271V11.7368H13.75V9.90271H12.25ZM11.7368 12.25C6.22126 12.25 1.75 7.77874 1.75 2.26316H0.25C0.25 8.60717 5.39283 13.75 11.7368 13.75V12.25ZM12.25 11.7368C12.25 12.0203 12.0203 12.25 11.7368 12.25V13.75C12.8487 13.75 13.75 12.8487 13.75 11.7368H12.25ZM11.8833 9.3611C12.1048 9.44969 12.25 9.66418 12.25 9.90271H13.75C13.75 9.05083 13.2314 8.28477 12.4404 7.96838L11.8833 9.3611ZM9.53612 8.75174C9.70072 8.61457 9.92727 8.57868 10.1262 8.65826L10.6833 7.26554C9.9728 6.98135 9.1637 7.10952 8.57584 7.59941L9.53612 8.75174ZM6.27535 9.00268C7.03726 9.76459 8.25444 9.8198 9.08221 9.13L8.12193 7.97767C7.89016 8.17081 7.54935 8.15535 7.33601 7.94202L6.27535 9.00268ZM4.87 4.91779C4.1802 5.74556 4.23541 6.96274 4.99732 7.72465L6.05798 6.66399C5.84465 6.45065 5.82919 6.10984 6.02233 5.87807L4.87 4.91779ZM5.34174 3.8738C5.42132 4.07273 5.38543 4.29928 5.24826 4.46388L6.40059 5.42416C6.89047 4.8363 7.01865 4.0272 6.73446 3.31671L5.34174 3.8738ZM4.09729 1.75C4.33582 1.75 4.55031 1.89522 4.6389 2.11669L6.03162 1.5596C5.71523 0.768648 4.94917 0.25 4.09729 0.25V1.75ZM2.26316 0.25C1.15132 0.25 0.25 1.15132 0.25 2.26316H1.75C1.75 1.97975 1.97975 1.75 2.26316 1.75V0.25Z" fill="#961842"/>
</svg>
